<svg
    xmlns:dc="http://purl.org/dc/elements/1.1/"
    xmlns:cc="http://creativecommons.org/ns#"
    xmlns:rdf="http://www.w3.org/1999/02/22-rdf-syntax-ns#"
    xmlns:svg="http://www.w3.org/2000/svg"
    xmlns="http://www.w3.org/2000/svg"
    xmlns:sodipodi="http://sodipodi.sourceforge.net/DTD/sodipodi-0.dtd"
    xmlns:inkscape="http://www.inkscape.org/namespaces/inkscape"
    viewBox="0 0 1000 245.19"
    version="1.1"
    id="svg24"
    sodipodi:docname="Switch_wide.svg"
    inkscape:version="0.92.2 (5c3e80d, 2017-08-06)">
    <metadata
        id="metadata30">
        <rdf:RDF>
        <cc:Work
            rdf:about="">
            <dc:format>image/svg+xml</dc:format>
            <dc:type
            rdf:resource="http://purl.org/dc/dcmitype/StillImage" />
        </cc:Work>
        </rdf:RDF>
    </metadata>
    <defs
        id="defs28" />
    <sodipodi:namedview
        pagecolor="#ffffff"
        bordercolor="#666666"
        borderopacity="1"
        objecttolerance="10"
        gridtolerance="10"
        guidetolerance="10"
        inkscape:pageopacity="0"
        inkscape:pageshadow="2"
        inkscape:window-width="1828"
        inkscape:window-height="1105"
        id="namedview26"
        showgrid="false"
        inkscape:zoom="1.185"
        inkscape:cx="520.98982"
        inkscape:cy="110.23667"
        inkscape:window-x="470"
        inkscape:window-y="152"
        inkscape:window-maximized="0"
        inkscape:current-layer="svg24" />
    <title
        id="title7882">Switch Logo</title>
    <path
        d="M 692.39627,93.578996 V 51.859175 h -8.46591 V 79.261999 L 663.40784,51.859175 h -8.42546 v 41.719821 h 8.45648 V 65.677175 l 20.72163,27.901821 z M 557.41538,51.859175 h -35.34012 v 8.854467 h 13.33455 v 32.865354 h 8.97414 V 60.713642 h 13.03143 z m 34.15714,79.760135 h 25.15659 v 62.01389 h 16.93634 v -62.01389 h 24.58757 v -16.70473 h -66.6805 z m 28.83299,-45.769311 h -23.97827 v -9.782507 h 22.17194 V 68.52037 h -22.17194 v -9.00215 h 23.97827 v -7.659045 l -32.44409,0.01399 v 41.705828 l 32.44409,-0.01399 z m 92.57703,43.997151 c 8.88714,0 17.17422,4.74125 21.60922,12.21998 l 12.80905,-11.13803 c -7.83622,-11.66346 -20.78215,-18.58878 -34.87681,-18.58878 -23.16835,0 -42.01828,18.84838 -42.01828,42.01672 0,23.16526 18.84993,42.01208 42.01828,42.01208 14.09466,0 27.04059,-6.92376 34.87681,-18.58567 l -12.80905,-11.13803 c -4.435,7.47874 -12.72371,12.22152 -21.60922,12.22152 -13.76822,0 -24.97162,-10.99502 -24.97162,-24.5099 0,-13.51486 11.2034,-24.50989 24.97162,-24.50989 m 32.38193,-45.035565 h -9.10481 V 60.626587 h 9.10481 c 6.66885,0 12.09252,5.422118 12.09252,12.090948 0,6.668829 -5.42367,12.09405 -12.09252,12.09405 m -0.42132,-32.95241 h -17.25036 v 41.719821 h 17.25036 c 11.8283,0 21.44914,-9.358128 21.44914,-20.861461 0,-11.500231 -9.62084,-20.85836 -21.44914,-20.85836 m 73.5001,94.078675 H 781.67614 V 114.91458 H 765.3958 v 78.71862 h 16.28034 v -31.40102 h 36.76711 v 31.40102 h 16.29128 v -78.71862 h -16.29128 z m -2.84467,-60.232421 c -7.14921,0 -12.96308,-5.826295 -12.96308,-12.989457 0,-7.158498 5.81387,-12.98323 12.96308,-12.98323 7.14764,0 12.96144,5.824732 12.96144,12.98323 0,7.163162 -5.8138,12.989457 -12.96144,12.989457 m 0,-35.251524 c -12.25109,0 -22.22167,9.98769 -22.22167,22.26518 0,12.27749 9.97058,22.26518 22.22167,22.26518 12.25258,0 22.22162,-9.98769 22.22162,-22.26518 0,-12.27749 -9.96904,-22.26518 -22.22162,-22.26518 M 554.85043,193.6332 h 17.51773 V 114.91458 H 554.85043 Z M 423.47608,51.859175 h -9.28507 v 41.719821 h 9.28507 z M 502.9657,172.02556 486.28897,114.91458 h -13.97189 l -16.58346,56.90268 -15.1409,-56.90268 h -17.13687 l 22.27297,78.71862 h 18.91678 l 14.67763,-51.86299 14.58127,51.86299 h 18.9945 l 22.39421,-78.71862 H 518.16412 Z M 353.77514,65.677175 374.4967,93.578996 h 8.23579 V 51.859175 h -8.46584 V 79.261999 L 353.74406,51.859175 h -8.42542 v 41.719821 h 8.4565 z m 24.2161,80.140975 c -11.37278,-1.86695 -18.7178,-3.97641 -18.7178,-9.27262 0,-6.1201 8.17827,-8.47207 19.1546,-8.47207 10.20377,0 20.4371,3.88628 24.08707,5.42213 l 5.59468,-13.6268 c -3.96244,-1.57004 -16.53839,-6.06257 -30.48386,-6.06257 -17.00786,0 -35.08208,8.29485 -35.08208,23.6658 0,12.46713 8.79227,18.83438 31.35905,22.71598 15.90724,2.73593 24.66998,4.24692 24.42125,11.08674 -0.13988,3.76657 -3.05147,10.08719 -20.98425,10.08719 -14.42426,0 -24.58917,-5.22936 -28.11945,-7.3528 l -7.45074,13.45112 c 3.97175,2.08614 17.29542,8.33682 34.43851,8.33682 25.04463,0 38.28126,-8.67725 38.28126,-25.09284 0,-9.51204 -3.21162,-19.42198 -36.49824,-24.88608 M 463.40353,65.677175 484.122,93.578996 h 8.23576 V 51.859175 h -8.46739 V 79.261999 L 463.36934,51.859175 h -8.42542 v 41.719821 h 8.45961 z M 218.45389,185.32125 h -21.59831 c -6.98283,0 -13.54595,-2.71727 -18.47995,-7.65282 -4.93556,-4.93556 -7.6544,-11.49713 -7.6544,-18.48153 V 86.759384 c 0,-6.984399 2.71884,-13.545965 7.65283,-18.478417 4.93557,-4.937101 11.49869,-7.655931 18.48152,-7.655931 h 21.59831 z M 229.34941,48.639798 h -32.49383 c -21.05267,0 -38.11958,17.066909 -38.11958,38.119586 V 159.1869 c 0,21.05111 17.06691,38.11804 38.11958,38.11804 h 32.49383 c 0.60315,0 1.08972,-0.48812 1.08972,-1.08972 V 49.729498 c 0,-0.601593 -0.48657,-1.0897 -1.08972,-1.0897 m 45.37603,96.797502 c -8.30107,0 -15.03052,-6.72946 -15.03052,-15.03208 0,-8.30106 6.72945,-15.03049 15.03052,-15.03049 8.30105,0 15.03049,6.72943 15.03049,15.03049 0,8.30262 -6.72944,15.03208 -15.03049,15.03208 m -5.44388,-96.797502 h -22.99891 c -0.5363,0 -0.96847,0.433707 -0.96847,0.968448 V 196.21522 c 0,0.6016 0.48658,1.08972 1.08974,1.08972 h 22.87764 c 21.05265,0 38.11957,-17.06693 38.11957,-38.11804 V 86.759384 c 0,-21.052677 -17.06692,-38.119586 -38.11957,-38.119586 m -87.40053,44.600311 c 0,7.718121 6.25845,13.976561 13.97657,13.976561 7.72124,0 13.97812,-6.25844 13.97812,-13.976561 0,-7.72122 -6.25688,-13.97811 -13.97812,-13.97811 -7.71812,0 -13.97657,6.25689 -13.97657,13.97811"
        id="path22"
        inkscape:connector-curvature="0"
        style="stroke-width:0.8307035" />
</svg>