<svg xmlns="http://www.w3.org/2000/svg" viewBox="0 0 1000 245.19">
    <title>PS4 Logo</title>
    <path d="M611.83,142.26V104.49c0-7.71,3.6-13.23,11.27-13.23h47.32a.61.61,0,0,0,.57-.57V83.17a.51.51,0,0,0,0-.19H613.08c-12.54,1.59-18.67,10.33-18.67,21.51v37.78c0,7.71-3.7,13.23-11.27,13.23h-50a.55.55,0,0,0-.57.57v7.52a.66.66,0,0,0,.42.63h56.74C604.55,163.82,611.83,154.38,611.83,142.26Z"/>
    <path d="M417.42,164.21H434a.66.66,0,0,0,.42-.63V139.5c0-7.71,4.35-13,10.69-13h68.43c15.43,0,22.91-9.52,22.91-22,0-11.17-6.12-19.91-18.67-21.51H417.11c0,.06-.08.11-.08.19v7.52a.5.5,0,0,0,.57.57h90.2c7.67,0,11.26,5.52,11.26,13.23s-3.6,13.23-11.26,13.23H436.44c-11.07,0-19.4,9.42-19.4,21.79v24.08A.6.6,0,0,0,417.42,164.21Z"/>
    <path d="M670.71,155.49h90.87a.43.43,0,0,1,.47.38v7.71a.55.55,0,0,0,.57.57H779a.54.54,0,0,0,.57-.57v-7.52a.62.62,0,0,1,.57-.57H796.4a.55.55,0,0,0,.57-.57v-7.61a.55.55,0,0,0-.57-.57H780.12a.62.62,0,0,1-.57-.57V91.26c0-4.48-1.66-7.33-4.46-8.28h-4.74a18.2,18.2,0,0,0-4.8,2.09L667.68,145.5c-3.79,2.38-5.11,5-4.17,7C664.27,154.25,666.44,155.49,670.71,155.49ZM684.9,145.4l75.81-46.91a.86.86,0,0,1,1.43.76v46.91a.62.62,0,0,1-.57.57h-76.2c-.66,0-.95-.19-1-.38C684.23,146,684.42,145.69,684.9,145.4Z"/>
    <path d="M252.66,52.66C260,54,267.3,56,274.52,58c4.13,1.2,8.25,2.44,12.34,3.76a89.17,89.17,0,0,1,18.66,7.83,36.79,36.79,0,0,1,7.26,5.56,27.67,27.67,0,0,1,5.61,7.88c2.54,5.3,3.41,11.23,3.67,17.05a52.25,52.25,0,0,1-.6,11.39,26.78,26.78,0,0,1-3.38,9.31,16.85,16.85,0,0,1-6.28,6.06,16.6,16.6,0,0,1-8.17,1.93,28.75,28.75,0,0,1-12.3-3.11c-.07-12.8,0-25.59,0-38.39a36.67,36.67,0,0,0-.34-6.94,8.13,8.13,0,0,0-2.44-4.75,7.09,7.09,0,0,0-3.31-1.55A3.39,3.39,0,0,0,282,75.32a9.22,9.22,0,0,0-1.63,5.57q0,51.38,0,102.77l-27.64-8.77Q252.65,113.77,252.66,52.66Z"/>
    <path d="M211.24,139.34c12-4.25,24-8.55,36-12.79,0,4.72,0,9.44,0,14.16a16.81,16.81,0,0,1,0,1.92c-9.5,3.37-19,6.79-28.47,10.18a10.16,10.16,0,0,0-3.68,2.06,1.79,1.79,0,0,0-.6,1.84,3.28,3.28,0,0,0,1.89,1.56,19.69,19.69,0,0,0,6.58,1.07,36.92,36.92,0,0,0,7.38-.76,30.18,30.18,0,0,0,4.77-1.46c4.06-1.47,8.11-2.95,12.17-4.4,0,4,0,8,0,12,0,.8,0,1.6,0,2.4a93.85,93.85,0,0,1-15.11,1.58A90.16,90.16,0,0,1,202,164.14a27.13,27.13,0,0,1-9-4.17,10.22,10.22,0,0,1-3.44-4.31,5.94,5.94,0,0,1,.18-4.63,8.83,8.83,0,0,1,3.13-3.43,52.64,52.64,0,0,1,9.6-5C205.33,141.36,208.31,140.41,211.24,139.34Z"/>
    <path d="M307.91,134c2.72-.32,5.47-.39,8.21-.49a90.36,90.36,0,0,1,26.69,3.86c1.69.51,3.33,1.18,5,1.72a25.36,25.36,0,0,1,8.41,4.59,7.32,7.32,0,0,1,2.71,5.12,6.39,6.39,0,0,1-1.73,4.45,24.51,24.51,0,0,1-7.43,5.22,82.45,82.45,0,0,1-9,3.53l-55.24,19.84q0-7.74,0-15.47c0-.21-.09-.56.21-.62l42-15c1.89-.71,3.93-1.22,5.54-2.51a2.08,2.08,0,0,0,1-2.22,3.33,3.33,0,0,0-1.88-1.52,19.3,19.3,0,0,0-6.61-1.05A33.08,33.08,0,0,0,315.47,145c-10,3.5-19.94,7-29.93,10.52q0-8.31,0-16.61A103,103,0,0,1,307.91,134Z"/>
</svg>