<svg xmlns="http://www.w3.org/2000/svg" viewBox="0 0 1000 245.19" fill="#000000">
    <title>Steam Logo</title>
    <path d="M471.93,94l-6.1,10.8a30.91,30.91,0,0,0-16.8-5.3c-6.4,0-10.4,2.6-10.4,7.4,0,5.8,7,7.1,17.5,10.9,11.2,4,17.7,8.7,17.7,18.9,0,14.1-11.1,22-27,22-7.8,0-17.1-2-24.3-6.4l4.5-12a42,42,0,0,0,19.1,4.9c8.4,0,12.4-3.1,12.4-7.7,0-5.2-6.1-6.8-15.9-10.1-11.2-3.7-19-8.7-19-20.1,0-12.9,10.3-20.2,25.1-20.2C459,87.28,467.33,90.48,471.93,94Z"/>
    <path d="M521,100.88v56.7h-14.5v-56.7h-21V88.48h56.4v12.4Z"/>
    <path d="M571.43,100.78v15.6h27.7v12.4h-27.7V145h32.1v12.5h-46.6v-69h46.6v12.4h-32.1Z"/>
    <path d="M635.93,144.18l-4.6,13.4h-15.2L642,88.48h14.6l26.7,69.1h-15.7l-4.7-13.4Zm13.4-39.3-9.4,27.7H659Z"/>
    <path d="M756.53,115.18l-18.9,40.4h-8.2l-18.6-40v42h-13.9V88.48h13.8l23.2,49.9,22.4-49.9h14v69.1h-13.8Z"/>
    <path d="M282.77,31.08a91.7,91.7,0,0,0-91.4,84.4l49.2,20.3a26.25,26.25,0,0,1,14.6-4.5h1.4l21.9-31.7v-.4a34.6,34.6,0,1,1,34.6,34.6h-.8l-31.2,22.3v1.2a26,26,0,0,1-51.5,5.1l-35.2-14.5a91.79,91.79,0,1,0,88.4-116.8Z"/>
    <path d="M248.77,170.38l-11.3-4.7a19.92,19.92,0,0,0,10,9.6,19.57,19.57,0,0,0,25.5-10.5,19.25,19.25,0,0,0,0-14.9,19.37,19.37,0,0,0-24.9-10.8l11.6,4.8a14.37,14.37,0,0,1,7.7,18.8A14.16,14.16,0,0,1,248.77,170.38Z"/>
    <path d="M336.07,99.18a23.1,23.1,0,1,0-23.1,23.1A23.11,23.11,0,0,0,336.07,99.18Zm-40.3,0a17.3,17.3,0,1,1,17.3,17.3A17.31,17.31,0,0,1,295.77,99.18Z"/>
</svg>