<svg xmlns="http://www.w3.org/2000/svg" xmlns:xlink="http://www.w3.org/1999/xlink" viewBox="0 0 1000 245.19">
    <defs>
    <style>
        .a { fill: #fff; }
        .b { mask: url("#a"); }
        .c { mask: url("#b"); }
    </style>
    <mask id="a" x="192.17" y="59.19" width="69.29" height="19.6" maskUnits="userSpaceOnUse">
        <polygon class="a" points="261.46 59.19 192.17 59.19 192.17 78.79 261.46 78.79 261.46 59.19"/>
    </mask>
    <mask id="b" x="770.99" y="83.52" width="57.32" height="80.17" maskUnits="userSpaceOnUse">
        <polygon class="a" points="828.3 163.69 828.3 83.52 770.99 83.52 770.99 163.69 828.3 163.69"/>
    </mask>
    </defs>
    <title>XBox One Logo</title>
    <g class="b">
    <path d="M226.87,59.19a65.16,65.16,0,0,1,34.46,9.69.25.25,0,0,1,.11.33.25.25,0,0,1-.32.11c-12.8-2.77-32.27,8.3-34.12,9.41a.21.21,0,0,1-.28,0c-4.88-2.81-22.88-12.25-34.22-9.34a.25.25,0,0,1-.2-.45,65.1,65.1,0,0,1,34.56-9.75"/>
    </g>
    <path d="M180.45,78.23l-.06.06h0a66.25,66.25,0,0,0-6.16,87.23.3.3,0,0,0,.36.11.27.27,0,0,0,.08-.34c-5-15.61,20.73-53.45,34.05-69.31a.35.35,0,0,0,.1-.2.3.3,0,0,0-.13-.22c-22.4-22.32-28.39-17.22-28.3-17.29"/><path d="M273.29,78.23l.06.06h0a66.26,66.26,0,0,1,6.16,87.23.29.29,0,0,1-.36.11.29.29,0,0,1-.08-.34c5-15.61-20.71-53.48-34-69.34a.36.36,0,0,1-.1-.19.29.29,0,0,1,.13-.23c22.41-22.32,28.35-17.18,28.27-17.25"/><polygon points="583.65 163.76 557.72 128.99 531.83 163.76 521.16 163.76 552.33 121.75 523.86 83.57 534.53 83.57 557.72 114.71 580.92 83.57 591.59 83.57 563.14 121.75 594.32 163.76 583.65 163.76"/><polygon points="381.63 163.75 350.42 121.75 378.89 83.57 368.22 83.57 345.02 114.72 321.84 83.57 311.2 83.57 339.65 121.75 308.45 163.75 319.13 163.75 345.03 128.99 370.95 163.75 381.63 163.75"/><path d="M226.87,112.3a.39.39,0,0,1,.21.1c19.8,15.07,53.68,52.33,43.33,62.86h0a66.08,66.08,0,0,1-87.1,0h0c-10.33-10.53,23.55-47.79,43.33-62.86a.46.46,0,0,1,.23-.1"/>
    <g class="c">
    <polygon points="780.07 155.85 780.07 126.2 824.72 126.2 824.72 118.36 780.07 118.36 780.07 91.35 827.75 91.35 827.75 83.52 770.99 83.52 770.99 163.69 828.3 163.69 828.3 155.85 780.07 155.85"/>
    </g>
    <path d="M419,155.39H395.16V126.2H419c9,0,19.86,2.47,19.86,14,0,13.24-12.44,15.22-19.86,15.22ZM395.16,91.93H419c6.45,0,17.27,1.59,17.27,12.74,0,8.44-6.3,13.46-17.27,13.46H395.16Zm45.78,32.85a22.89,22.89,0,0,0-5.32-3.34,18.14,18.14,0,0,0,9.76-16.06c0-5.13-1.91-21.81-26.38-21.81H386v34.57h-11c-1.42,1.83-4.66,6.24-5.89,8H386v37.57h33c17.86,0,28.94-9,28.94-23.41a19.7,19.7,0,0,0-7-15.57Z"/><path d="M490.83,157c-17.37,0-29.54-13.75-29.54-33.44s12.17-33.42,29.54-33.42,29.44,13.75,29.44,33.42S508.16,157,490.83,157m0-75.33c-22.8,0-38.73,17.23-38.73,41.89s15.94,41.92,38.73,41.92,38.66-17.21,38.66-41.92S513.6,81.72,490.83,81.72"/><polygon points="751.8 83.57 751.8 149.37 702.75 83.53 694.7 83.51 694.7 163.62 703.73 163.62 703.73 99.28 751.79 163.67 760.84 163.69 760.84 83.57 751.8 83.57"/><path d="M647.8,157c-17.37,0-29.53-13.75-29.53-33.45s12.17-33.42,29.53-33.42,29.45,13.75,29.45,33.42S665.15,157,647.8,157m0-75.34c-22.8,0-38.73,17.23-38.73,41.89S625,165.54,647.8,165.54s38.67-17.24,38.67-41.95S670.58,81.71,647.8,81.71"/>
</svg>